<svg width="24" height="24" viewBox="0 0 20 20" fill="#000" xmlns="http://www.w3.org/2000/svg">
<path d="M12.4531 4.16698C12.3648 4.08654 12.2481 4.04448 12.1288 4.05005C12.0095 4.05562 11.8972 4.10837 11.8168 4.19668C11.7364 4.285 11.6943 4.40165 11.6999 4.52098C11.7054 4.64031 11.7582 4.75254 11.8465 4.83298L14.6968 8.09998H2.2498C2.13046 8.09998 2.016 8.14739 1.93161 8.23179C1.84722 8.31618 1.7998 8.43064 1.7998 8.54998C1.7998 8.66933 1.84722 8.78379 1.93161 8.86818C2.016 8.95257 2.13046 8.99998 2.2498 8.99998H14.695L11.8465 12.2652C11.7583 12.3456 11.7057 12.4578 11.7002 12.5771C11.6947 12.6963 11.7368 12.8128 11.8173 12.901C11.8977 12.9892 12.0099 13.0419 12.1291 13.0473C12.2484 13.0528 12.3649 13.0107 12.4531 12.9303L15.9775 9.04768C16.0472 8.98466 16.1029 8.90772 16.141 8.82184C16.1791 8.73596 16.1988 8.64304 16.1988 8.54908C16.1988 8.45512 16.1791 8.36221 16.141 8.27633C16.1029 8.19045 16.0472 8.11351 15.9775 8.05048L12.4531 4.16698Z" fill="#ffffff"/>
</svg>
