<svg width="28" height="28" viewBox="0 0 28 28" fill="none" xmlns="http://www.w3.org/2000/svg">
<path d="M24.4378 9.68912C24.426 8.80551 24.2606 7.93069 23.9489 7.10378C23.6787 6.40629 23.2659 5.77285 22.737 5.24392C22.208 4.71499 21.5746 4.30221 20.8771 4.03195C20.0608 3.72553 19.1985 3.55985 18.3268 3.54195C17.2044 3.49178 16.8486 3.47778 13.9996 3.47778C11.1506 3.47778 10.7854 3.47778 9.67126 3.54195C8.79995 3.55998 7.938 3.72566 7.12209 4.03195C6.42449 4.30202 5.79095 4.71474 5.262 5.24369C4.73305 5.77264 4.32033 6.40619 4.05026 7.10378C3.74323 7.91944 3.5779 8.78158 3.56143 9.65295C3.51126 10.7765 3.49609 11.1323 3.49609 13.9813C3.49609 16.8303 3.49609 17.1943 3.56143 18.3096C3.57893 19.1823 3.74343 20.0433 4.05026 20.8611C4.32078 21.5585 4.73381 22.1918 5.26294 22.7205C5.79207 23.2493 6.42567 23.6618 7.12326 23.9318C7.93693 24.2505 8.79903 24.4281 9.67243 24.4568C10.7959 24.507 11.1518 24.5221 14.0008 24.5221C16.8498 24.5221 17.2149 24.5221 18.3291 24.4568C19.2008 24.4396 20.0632 24.2743 20.8794 23.968C21.5767 23.6974 22.21 23.2845 22.7389 22.7556C23.2678 22.2267 23.6807 21.5934 23.9513 20.8961C24.2581 20.0795 24.4226 19.2185 24.4401 18.3446C24.4903 17.2223 24.5054 16.8665 24.5054 14.0163C24.5031 11.1673 24.5031 10.8056 24.4378 9.68912ZM13.9926 19.369C11.0129 19.369 8.59909 16.9551 8.59909 13.9755C8.59909 10.9958 11.0129 8.58195 13.9926 8.58195C15.423 8.58195 16.7949 9.15019 17.8064 10.1617C18.8179 11.1731 19.3861 12.545 19.3861 13.9755C19.3861 15.4059 18.8179 16.7778 17.8064 17.7892C16.7949 18.8007 15.423 19.369 13.9926 19.369ZM19.6008 9.64012C19.4356 9.64027 19.2719 9.60785 19.1193 9.5447C18.9666 9.48155 18.8279 9.38891 18.7111 9.2721C18.5943 9.15528 18.5017 9.01658 18.4385 8.86392C18.3754 8.71126 18.3429 8.54765 18.3431 8.38245C18.3431 8.21737 18.3756 8.0539 18.4388 7.90139C18.502 7.74887 18.5946 7.61029 18.7113 7.49356C18.828 7.37683 18.9666 7.28423 19.1191 7.22106C19.2716 7.15788 19.4351 7.12537 19.6002 7.12537C19.7653 7.12537 19.9287 7.15788 20.0812 7.22106C20.2338 7.28423 20.3723 7.37683 20.4891 7.49356C20.6058 7.61029 20.6984 7.74887 20.7616 7.90139C20.8247 8.0539 20.8573 8.21737 20.8573 8.38245C20.8573 9.07778 20.2949 9.64012 19.6008 9.64012Z" fill="white"/>
<path d="M13.9928 17.4789C15.9277 17.4789 17.4963 15.9104 17.4963 13.9754C17.4963 12.0405 15.9277 10.4719 13.9928 10.4719C12.0578 10.4719 10.4893 12.0405 10.4893 13.9754C10.4893 15.9104 12.0578 17.4789 13.9928 17.4789Z" fill="white"/>
</svg>
